<?xml version="1.0" standalone="no"?>
<!DOCTYPE svg PUBLIC "-//W3C//DTD SVG 20010904//EN"
 "http://www.w3.org/TR/2001/REC-SVG-20010904/DTD/svg10.dtd">
<svg version="1.0" xmlns="http://www.w3.org/2000/svg"
 width="1108.000000pt" height="1721.000000pt" viewBox="0 0 1108.000000 1721.000000"
 preserveAspectRatio="xMidYMid meet">

<g transform="translate(0.000000,1721.000000) scale(0.100000,-0.100000)"
fill="#000000" stroke="none">
<path d="M2260 13976 c-14 -8 -49 -30 -79 -50 -48 -32 -55 -35 -73 -22 -18 13
-26 11 -77 -24 -31 -20 -71 -45 -88 -54 -21 -10 -33 -24 -33 -36 0 -35 -74
-93 -207 -163 -138 -74 -224 -136 -187 -137 11 0 25 5 31 11 6 6 16 8 22 4 8
-4 5 -17 -9 -41 -33 -53 -6 -69 64 -40 32 13 33 13 29 -5 -7 -26 35 -26 87 1
55 28 59 25 20 -15 -29 -30 -32 -37 -20 -45 38 -25 62 -11 169 98 131 134 231
219 338 289 46 30 83 58 83 64 0 5 35 34 77 66 87 64 82 84 -7 29 -64 -40 -75
-43 -66 -21 7 19 2 19 -35 -1 -45 -23 -48 -9 -6 30 62 57 38 100 -33 62z"/>
<path d="M3678 13709 c-59 -5 -233 -24 -386 -44 -227 -28 -306 -42 -418 -75
-77 -22 -163 -43 -191 -46 -31 -4 -53 -12 -53 -19 0 -6 -13 -12 -28 -12 -54 0
-227 -91 -349 -185 -34 -27 -74 -53 -88 -58 -14 -5 -25 -13 -25 -17 0 -5 27
-28 61 -53 68 -49 181 -166 272 -280 75 -93 183 -258 397 -603 91 -146 168
-266 171 -267 3 0 56 34 118 75 124 83 341 194 466 240 44 15 82 32 85 35 10
14 110 60 110 51 0 -5 -9 -13 -21 -16 -11 -4 -19 -9 -17 -11 2 -2 56 9 119 25
126 32 265 57 377 67 39 4 72 11 72 15 0 5 7 9 16 9 14 0 15 2 3 17 -22 26
-74 43 -129 43 -50 0 -51 1 -48 28 l3 27 304 3 c172 1 309 6 316 12 6 5 21 6
34 3 14 -4 26 -1 31 8 11 17 137 17 179 -1 33 -13 41 -30 16 -30 -8 0 -15 -4
-15 -10 0 -12 50 -25 166 -44 50 -7 104 -21 120 -30 28 -15 26 -15 -51 -10
-99 6 -80 -6 59 -37 88 -19 100 -20 113 -6 14 14 10 18 -43 45 -33 17 -68 37
-79 46 -20 15 -19 15 8 17 57 4 62 4 60 -8 -5 -23 145 -83 157 -64 4 7 25 5
60 -5 30 -9 66 -17 79 -19 13 -2 27 -8 30 -14 10 -15 141 -73 155 -68 6 3 55
-16 109 -42 76 -36 96 -43 91 -29 -7 23 1 23 42 -3 57 -35 38 -4 -31 51 -65
51 -95 92 -95 127 0 12 -24 29 -78 55 -42 20 -86 44 -97 53 l-20 17 20 -7 c49
-17 58 -18 50 -6 -10 17 12 10 136 -45 55 -24 104 -44 110 -44 6 0 -5 20 -25
44 -20 24 -36 48 -36 53 0 12 -99 77 -106 70 -4 -4 -1 -13 6 -22 16 -19 6 -19
-23 -1 -33 22 -274 117 -432 171 -77 27 -145 55 -152 63 -6 8 -16 11 -22 8
-17 -11 -84 5 -73 16 12 12 81 15 105 4 11 -5 17 -4 17 3 0 6 -13 14 -30 18
-16 3 -30 12 -30 19 0 22 -45 34 -129 34 -57 0 -91 6 -124 20 -32 14 -64 20
-111 18 -40 -1 -71 3 -78 10 -7 7 -26 12 -43 12 -23 0 -26 3 -15 10 8 5 27 10
42 10 15 0 30 5 34 11 4 6 20 8 39 5 40 -8 117 3 109 15 -3 5 -23 9 -45 9 -21
0 -39 5 -39 10 0 12 -97 13 -104 1 -3 -5 -16 -7 -29 -4 -110 25 -126 37 -52
39 57 1 88 24 33 24 -20 0 -49 5 -65 12 l-28 12 28 4 c44 6 31 22 -19 22 -54
0 -95 -17 -73 -31 11 -7 10 -9 -5 -9 -10 0 -25 8 -32 18 -13 16 -13 16 -14 -1
0 -10 -12 -22 -26 -28 -26 -9 -26 -10 -8 -24 25 -19 40 -19 48 1 5 13 9 14 21
4 13 -11 13 -14 -1 -25 -27 -19 -2 -27 103 -33 51 -3 96 -9 100 -15 4 -6 -10
-7 -40 -3 -28 4 -48 3 -52 -4 -8 -14 -52 -13 -61 1 -5 8 -33 10 -91 6 -65 -5
-85 -3 -89 7 -4 11 -12 11 -46 -1 -29 -10 -48 -11 -67 -4 -14 5 -20 10 -13 10
7 1 10 6 7 11 -4 6 20 10 64 10 41 0 73 5 77 11 5 9 -9 10 -52 5 -49 -5 -55
-4 -34 6 l25 11 -24 5 c-13 2 -28 -1 -34 -7 -6 -6 -19 -11 -29 -11 -10 0 -18
-5 -18 -10 0 -16 -51 -33 -64 -20 -7 7 -4 10 10 10 20 0 44 17 44 32 0 4 -9 8
-20 8 -11 0 -20 5 -20 10 0 6 -20 10 -44 10 -25 0 -48 -4 -51 -10 -4 -6 8 -10
29 -10 20 0 36 -4 36 -10 0 -5 -11 -10 -25 -10 -16 0 -25 -6 -25 -15 0 -8 5
-15 10 -15 6 0 10 5 10 11 0 6 5 9 11 7 6 -2 10 -8 10 -13 -2 -13 -51 -26 -51
-14 0 5 -14 9 -31 9 -23 0 -48 -14 -95 -54 -59 -48 -72 -54 -137 -65 -119 -19
-198 -42 -277 -78 -93 -43 -158 -65 -173 -60 -6 2 10 12 36 22 26 10 47 22 47
27 0 4 12 14 28 20 49 20 1 19 -78 -1 -56 -15 -76 -17 -82 -8 -10 16 -4 20 80
50 60 22 76 25 92 14 11 -6 20 -15 20 -19 0 -5 5 -8 10 -8 6 0 10 9 10 20 0
11 5 20 11 20 6 0 9 6 6 14 -4 9 5 15 27 19 48 8 179 48 173 53 -2 2 -49 -3
-105 -12 -132 -21 -187 -11 -67 12 l40 8 -35 6 c-19 4 -29 8 -22 9 17 2 15 21
-3 21 -30 0 -14 18 23 24 106 18 206 44 210 54 2 7 -5 12 -15 13 -10 1 -2 6
17 11 70 20 120 41 120 49 0 15 101 38 235 54 72 9 152 21 180 27 42 9 46 12
27 19 -34 13 -26 29 16 29 25 1 32 3 22 9 -20 11 -148 38 -227 47 -35 3 -60
11 -57 16 3 5 13 8 22 7 21 -1 62 11 62 20 0 14 -103 40 -121 31 -12 -7 -19
-5 -23 6 -5 12 -15 14 -46 9 -26 -4 -40 -3 -40 4 0 6 -9 11 -20 11 -22 0 -27
16 -7 23 30 11 -10 20 -100 24 -118 5 -146 10 -137 24 8 14 -15 29 -41 27 -11
0 -68 -5 -127 -9z m-53 -609 c-3 -5 -15 -10 -26 -10 -11 0 -17 5 -14 10 3 6
15 10 26 10 11 0 17 -4 14 -10z m1560 -120 c3 -5 1 -10 -4 -10 -6 0 -11 5 -11
10 0 6 2 10 4 10 3 0 8 -4 11 -10z m40 0 c3 -5 1 -10 -4 -10 -6 0 -11 5 -11
10 0 6 2 10 4 10 3 0 8 -4 11 -10z m-167 -105 c-9 -9 -98 -22 -98 -14 0 4 8
10 18 12 24 7 86 8 80 2z m-1621 -21 c-16 -9 -32 -13 -35 -9 -9 9 19 25 43 24
16 0 15 -2 -8 -15z m1498 -3 c-14 -13 -93 -25 -80 -13 6 6 21 12 35 15 44 8
54 7 45 -2z m-1595 -31 c0 -5 -7 -10 -16 -10 -8 0 -12 5 -9 10 3 6 10 10 16
10 5 0 9 -4 9 -10z m1417 -6 c-3 -3 -12 -4 -19 -1 -8 3 -5 6 6 6 11 1 17 -2
13 -5z m-252 -79 c-35 -16 -64 -20 -49 -6 10 10 39 18 64 19 8 0 2 -6 -15 -13z
m770 -35 c3 -6 -4 -14 -17 -19 -13 -6 -17 -10 -10 -10 6 -1 11 -7 10 -13 -2
-7 7 -14 19 -16 12 -2 27 -9 33 -17 10 -12 7 -13 -17 -6 -68 21 -143 53 -143
63 0 5 7 7 16 4 9 -3 25 1 37 9 25 17 63 20 72 5z m-1055 -115 c0 -2 -10 -9
-22 -15 -22 -11 -22 -10 -4 4 21 17 26 19 26 11z m30 -15 c-8 -5 -19 -10 -25
-10 -5 0 -3 5 5 10 8 5 20 10 25 10 6 0 3 -5 -5 -10z m1170 -30 c13 -8 13 -10
-2 -10 -9 0 -20 5 -23 10 -8 13 5 13 25 0z m480 -29 c0 -3 -19 -7 -43 -7 -23
-1 -30 1 -14 3 15 2 27 8 27 13 0 5 7 7 15 4 8 -4 15 -9 15 -13z m125 -62 c11
-10 -9 -12 -42 -3 -13 4 -20 10 -17 16 6 9 43 2 59 -13z"/>
<path d="M1696 13333 c-11 -11 -6 -23 8 -23 8 0 17 4 20 9 7 10 -19 23 -28 14z"/>
<path d="M5019 13314 c-7 -8 -7 -14 1 -19 20 -12 9 -25 -22 -26 -28 0 -30 -2
-13 -9 33 -14 65 -12 65 5 0 18 45 20 86 5 16 -7 31 -7 36 -2 6 6 -21 19 -66
34 -60 19 -79 22 -87 12z"/>
<path d="M4398 13303 c6 -2 18 -2 25 0 6 3 1 5 -13 5 -14 0 -19 -2 -12 -5z"/>
<path d="M4836 13281 c14 -14 94 -25 94 -13 0 14 -25 22 -68 22 -22 0 -32 -4
-26 -9z"/>
<path d="M4120 13260 c0 -5 9 -10 19 -10 11 0 23 5 26 10 4 6 -5 10 -19 10
-14 0 -26 -4 -26 -10z"/>
<path d="M5070 13252 c0 -6 -3 -17 -6 -26 -4 -11 0 -16 14 -16 11 0 23 -7 26
-16 3 -8 10 -13 15 -10 16 10 61 -12 55 -27 -4 -11 13 -15 78 -20 46 -4 113
-15 150 -26 39 -11 68 -15 70 -10 2 7 19 7 46 1 36 -9 41 -8 31 4 -9 11 -8 14
5 14 27 0 10 17 -26 26 -30 7 -27 8 32 13 l65 6 -28 19 c-16 11 -53 20 -93 24
-60 4 -66 3 -71 -17 -6 -25 -2 -24 -78 -6 -33 8 -86 15 -118 15 -51 0 -59 3
-69 25 -6 14 -17 25 -23 25 -7 0 -27 3 -44 6 -19 4 -31 2 -31 -4z"/>
<path d="M5120 13160 c0 -5 7 -10 15 -10 8 0 15 5 15 10 0 6 -7 10 -15 10 -8
0 -15 -4 -15 -10z"/>
<path d="M4080 13140 c-12 -8 -11 -10 7 -10 12 0 25 5 28 10 8 13 -15 13 -35
0z"/>
<path d="M5730 13115 c0 -8 9 -15 20 -15 12 0 33 -6 48 -14 76 -38 97 -27 30
17 -46 30 -98 36 -98 12z"/>
<path d="M1530 13105 c-10 -12 -10 -15 3 -15 19 0 31 16 18 24 -5 3 -14 -1
-21 -9z"/>
<path d="M1916 13085 c-30 -39 -60 -104 -52 -113 3 -2 12 1 20 7 8 7 20 10 26
6 5 -3 13 1 16 9 3 9 12 16 19 16 9 0 12 -11 8 -39 -4 -32 -1 -43 24 -71 25
-28 32 -31 51 -21 30 16 37 -4 9 -26 -13 -10 -26 -26 -30 -37 -5 -12 6 -6 33
18 45 41 60 45 60 17 0 -11 5 -23 10 -26 12 -7 -44 -93 -66 -102 -8 -3 -14
-15 -14 -27 0 -36 -36 -82 -118 -150 -81 -67 -95 -85 -86 -110 3 -8 1 -17 -5
-21 -17 -10 -14 -65 4 -65 11 0 14 -7 9 -25 -8 -34 2 -71 23 -80 10 -4 56 -15
102 -24 l84 -16 12 -48 c11 -42 10 -50 -4 -64 -15 -15 -13 -16 16 -10 18 3 35
3 37 -2 8 -13 -67 -124 -97 -144 -30 -20 -34 -12 -11 21 8 12 11 22 7 22 -5 0
-47 -46 -93 -102 -76 -91 -90 -115 -122 -203 -47 -130 -55 -159 -63 -222 -4
-29 -13 -57 -21 -64 -8 -6 -14 -20 -14 -29 0 -10 -9 -39 -20 -65 -20 -48 -26
-85 -12 -85 16 1 44 29 37 39 -3 6 1 11 9 11 13 0 16 -12 16 -52 0 -56 -11
-85 -28 -74 -5 3 -12 -4 -16 -17 -9 -35 -7 -47 9 -47 10 0 15 -10 15 -31 0
-17 5 -40 11 -51 8 -16 8 -22 -2 -29 -10 -6 -10 -10 0 -23 19 -23 31 -20 31 8
0 13 7 30 16 37 15 12 16 11 10 -9 -4 -13 -11 -53 -15 -90 -6 -59 -8 -63 -15
-36 -6 29 -10 31 -34 25 -34 -9 -52 -44 -52 -103 0 -26 -6 -53 -13 -60 -8 -7
-12 -19 -9 -26 2 -6 -1 -12 -7 -12 -7 0 -11 -24 -11 -61 0 -55 2 -60 16 -48
13 11 15 8 12 -27 -3 -36 -1 -39 20 -36 22 3 23 1 17 -42 -8 -52 1 -58 35 -21
13 14 32 25 42 25 19 0 19 -1 -1 -26 -22 -28 -28 -64 -11 -64 6 0 10 7 10 15
0 8 6 15 13 15 24 0 28 -13 10 -32 -15 -17 -15 -20 5 -39 24 -22 27 -37 11
-59 -8 -12 -12 -12 -16 -2 -4 10 -8 9 -19 -5 -7 -10 -14 -23 -14 -29 0 -17 68
-23 74 -7 10 25 31 12 48 -29 15 -35 16 -44 4 -57 -7 -9 -16 -26 -19 -38 -4
-19 -1 -23 20 -23 18 0 24 -4 19 -15 -3 -8 -1 -15 4 -15 6 0 10 6 10 13 0 24
19 -17 41 -88 11 -38 25 -83 30 -99 5 -16 9 -42 9 -57 0 -21 4 -27 15 -23 8 4
15 1 15 -5 0 -19 27 -12 33 9 3 11 1 20 -4 20 -5 0 -9 -4 -9 -10 0 -16 -17
-11 -24 7 -6 15 12 173 20 173 2 0 14 -11 28 -25 26 -26 46 -32 46 -15 0 6 -6
10 -14 10 -21 0 -29 43 -10 57 9 6 13 16 9 22 -3 6 -1 11 4 11 13 0 14 -27 2
-35 -17 -10 -8 -45 11 -45 10 0 18 -6 18 -14 0 -16 -34 -31 -50 -21 -5 3 -10
3 -11 -2 0 -4 -2 -20 -4 -35 -3 -20 1 -28 11 -28 8 0 13 -4 10 -9 -3 -5 2 -15
11 -22 15 -13 16 -11 9 16 -4 16 -12 33 -17 36 -6 3 1 13 15 22 32 21 35 21
29 -1 -2 -10 3 -31 11 -47 9 -17 16 -39 16 -51 0 -11 11 -54 25 -94 30 -87 29
-81 8 -73 -16 6 -16 5 -4 -10 11 -13 17 -15 28 -6 7 7 17 9 20 5 4 -4 1 -11
-7 -16 -13 -8 -12 -10 3 -10 9 0 17 -5 17 -11 0 -6 7 -17 15 -25 17 -18 20
-70 4 -80 -12 -7 6 -24 26 -24 6 0 5 4 -2 8 -8 5 -6 14 8 31 24 29 33 22 34
-29 1 -52 18 -70 43 -47 14 13 21 14 30 5 14 -14 16 -5 3 20 -20 37 -91 210
-91 221 0 6 -7 14 -15 17 -8 4 -15 17 -15 29 0 13 -12 66 -26 117 -14 51 -35
145 -45 208 -21 121 -40 480 -28 516 4 12 17 77 28 145 30 173 53 255 69 237
10 -13 170 -370 395 -887 743 -1700 835 -1906 854 -1909 17 -3 22 7 36 63 25
103 70 206 355 830 145 319 281 618 302 665 21 47 70 155 110 240 40 85 126
272 190 415 217 477 426 930 481 1035 102 200 277 444 381 532 117 99 265 177
419 222 93 26 313 61 329 51 16 -10 3 -22 -30 -28 -16 -4 -30 -11 -30 -16 0
-12 62 -58 94 -71 25 -9 46 2 26 15 -5 3 -10 11 -10 17 0 6 24 -10 54 -36 57
-48 108 -67 121 -46 5 8 1 16 -9 22 -9 5 -14 13 -11 18 10 16 195 -111 195
-132 0 -6 -9 -3 -20 7 -11 10 -23 15 -27 11 -4 -3 -2 -10 3 -14 5 -5 32 -27
61 -50 35 -29 50 -48 46 -60 -2 -10 5 -26 16 -36 12 -11 21 -25 21 -33 0 -7
11 -18 24 -23 25 -9 76 -56 76 -69 0 -5 7 -15 16 -22 15 -12 16 -11 9 11 -4
14 -12 31 -17 37 -6 7 -23 39 -38 71 -25 53 -78 112 -101 112 -5 0 -9 6 -9 14
0 19 -125 152 -217 231 -40 34 -100 77 -134 95 -54 29 -64 31 -85 19 -21 -11
-28 -10 -54 9 -16 12 -39 22 -52 22 -13 1 -34 7 -48 15 -14 8 -33 14 -43 15
-31 0 -13 -24 25 -35 53 -15 57 -25 11 -25 -24 0 -46 6 -53 15 -7 8 -17 15
-22 15 -6 0 -6 -5 1 -14 9 -11 -4 -15 -76 -25 -246 -31 -494 -122 -638 -234
-150 -117 -248 -224 -364 -397 -99 -149 -161 -270 -270 -532 -49 -117 -154
-368 -234 -558 -79 -190 -171 -410 -205 -490 -290 -697 -564 -1346 -570 -1352
-4 -4 -211 502 -460 1125 -492 1233 -476 1186 -430 1268 29 53 61 71 133 78
53 5 60 9 63 29 l3 22 -265 0 c-247 0 -266 1 -266 18 0 20 54 105 62 97 3 -3
25 27 48 67 24 40 63 101 86 136 l44 63 0 342 0 342 -71 130 c-136 250 -223
387 -329 513 -102 122 -197 212 -224 212 -8 0 -26 -16 -40 -35z m4254 -927 c0
-23 -18 -41 -34 -35 -21 8 -20 34 2 40 29 8 32 7 32 -5z m87 -13 c15 -13 23
-25 18 -25 -18 0 -85 37 -78 44 12 12 32 6 60 -19z m-4547 -1045 c0 -5 -4 -10
-10 -10 -5 0 -10 5 -10 10 0 6 5 10 10 10 6 0 10 -4 10 -10z m-11 -492 c-7
-13 -14 -18 -16 -11 -3 7 1 22 8 35 7 13 14 18 16 11 3 -7 -1 -22 -8 -35z m-9
-78 c0 -5 -7 -10 -16 -10 -8 0 -12 5 -9 10 3 6 10 10 16 10 5 0 9 -4 9 -10z
m360 -482 c0 -7 -8 -22 -17 -33 -14 -18 -15 -18 -9 -2 3 10 6 25 6 33 0 8 5
14 10 14 6 0 10 -6 10 -12z"/>
<path d="M5167 13104 c-4 -5 16 -14 44 -21 56 -14 79 -10 35 7 -45 17 -71 21
-79 14z"/>
<path d="M5433 13069 c-18 -5 -33 -13 -33 -17 0 -5 73 -23 162 -41 90 -18 174
-37 187 -42 13 -5 26 -7 29 -5 3 3 -42 28 -99 56 -111 53 -185 68 -246 49z"/>
<path d="M5430 13010 c0 -5 7 -10 15 -10 8 0 15 5 15 10 0 6 -7 10 -15 10 -8
0 -15 -4 -15 -10z"/>
<path d="M5980 12951 c0 -18 25 -29 37 -16 6 7 9 16 6 19 -10 9 -43 7 -43 -3z"/>
<path d="M1852 12908 c-16 -16 -15 -29 2 -22 16 6 30 34 18 34 -5 0 -13 -5
-20 -12z"/>
<path d="M1857 12800 c-80 -86 -85 -100 -33 -80 17 6 24 14 20 25 -5 11 1 15
19 15 16 0 26 7 30 19 3 15 1 18 -12 14 -14 -5 -14 -3 2 13 13 14 20 16 26 6
5 -9 13 -6 31 13 18 20 20 25 8 25 -9 0 -18 5 -20 11 -2 6 -34 -21 -71 -61z"/>
<path d="M6250 12855 c7 -8 17 -15 22 -15 6 0 5 7 -2 15 -7 8 -17 15 -22 15
-6 0 -5 -7 2 -15z"/>
<path d="M1821 12826 c-19 -20 -33 -38 -30 -40 8 -8 72 51 68 63 -3 7 -18 -3
-38 -23z"/>
<path d="M5840 12837 c8 -8 26 -18 40 -22 22 -6 23 -5 10 8 -8 8 -26 18 -40
22 -22 6 -23 5 -10 -8z"/>
<path d="M6226 12811 c-6 -9 35 -24 43 -15 6 5 -18 24 -31 24 -4 0 -9 -4 -12
-9z"/>
<path d="M6233 12735 c15 -14 33 -25 40 -25 7 1 -1 12 -18 25 -39 32 -58 32
-22 0z"/>
<path d="M6405 12710 c10 -11 20 -18 23 -15 7 6 -18 35 -31 35 -5 0 -2 -9 8
-20z"/>
<path d="M6340 12655 c23 -19 47 -35 53 -35 16 1 -65 70 -81 70 -8 0 5 -16 28
-35z"/>
<path d="M4937 12604 c-3 -3 -36 -6 -73 -5 -37 0 -65 -2 -62 -5 6 -5 170 -34
196 -34 14 0 16 19 2 40 -7 12 -12 12 -22 2 -14 -14 -32 -16 -23 -2 7 11 -8
14 -18 4z"/>
<path d="M6420 12592 c0 -5 10 -17 21 -28 22 -19 22 -19 10 3 -12 24 -31 39
-31 25z"/>
<path d="M5080 12572 c0 -14 93 -31 112 -21 35 19 17 29 -47 29 -36 0 -65 -4
-65 -8z"/>
<path d="M4731 12540 l-23 -20 28 -1 c16 -1 32 -1 35 -1 3 0 22 -3 43 -8 33
-7 35 -6 24 8 -11 13 -10 15 10 10 12 -4 22 -2 22 3 0 9 -17 14 -80 23 -26 4
-41 0 -59 -14z"/>
<path d="M4892 12529 c-18 -28 -15 -32 16 -24 39 9 46 20 19 32 -19 9 -26 8
-35 -8z"/>
<path d="M6020 12540 c0 -5 7 -10 16 -10 8 0 12 5 9 10 -3 6 -10 10 -16 10 -5
0 -9 -4 -9 -10z"/>
<path d="M4995 12523 c-11 -3 -28 -11 -38 -18 -15 -11 -10 -14 39 -24 88 -17
123 -15 121 8 -1 14 -13 23 -44 30 -44 12 -46 12 -78 4z"/>
<path d="M5554 12516 c23 -18 36 -20 36 -6 0 6 -4 10 -9 10 -5 0 -18 3 -28 6
-16 5 -16 4 1 -10z"/>
<path d="M5500 12501 c0 -15 25 -31 83 -50 48 -17 57 -18 68 -5 9 11 8 14 -5
14 -9 0 -43 11 -76 25 -66 28 -70 29 -70 16z"/>
<path d="M5270 12490 c0 -5 21 -10 48 -10 34 0 43 3 32 10 -20 13 -80 13 -80
0z"/>
<path d="M6346 12484 c-9 -24 -7 -34 7 -34 7 0 37 -20 66 -45 29 -25 57 -45
62 -45 29 0 -17 60 -84 107 -37 27 -46 30 -51 17z m34 -19 c11 -13 10 -14 -4
-9 -9 3 -16 10 -16 15 0 13 6 11 20 -6z"/>
<path d="M5445 12460 c3 -5 13 -10 21 -10 8 0 14 5 14 10 0 6 -9 10 -21 10
-11 0 -17 -4 -14 -10z"/>
<path d="M6232 12423 c21 -20 40 -34 44 -31 7 7 -56 67 -71 68 -5 0 7 -17 27
-37z"/>
<path d="M5690 12446 c0 -2 17 -14 38 -27 l37 -23 -39 -6 c-24 -5 -56 -2 -85
7 -25 7 -73 13 -106 12 -35 -1 -79 5 -104 15 -66 24 -63 10 5 -19 32 -15 67
-30 76 -36 10 -5 27 -9 38 -9 11 0 20 -7 20 -15 0 -8 5 -15 11 -15 5 0 7 5 4
10 -3 6 0 10 8 10 8 0 17 -13 21 -30 4 -24 15 -35 48 -50 46 -21 94 -25 117
-11 14 9 7 31 -10 31 -6 0 -8 -4 -4 -9 12 -21 -17 -21 -46 0 -29 20 -30 22
-12 38 10 9 27 20 38 25 15 5 16 9 6 15 -18 11 9 21 58 21 26 0 44 -7 57 -22
l19 -21 -38 6 c-27 4 -37 2 -34 -6 4 -14 71 -29 75 -16 2 5 11 9 20 9 18 0
-50 62 -107 97 -30 19 -111 33 -111 19z m-12 -106 c7 0 10 -4 7 -10 -9 -14
-28 -12 -51 6 -18 15 -18 15 6 10 14 -3 31 -6 38 -6z"/>
<path d="M5668 12413 c6 -2 18 -2 25 0 6 3 1 5 -13 5 -14 0 -19 -2 -12 -5z"/>
<path d="M5880 12390 c0 -9 101 -50 124 -50 11 0 -2 11 -30 26 -49 25 -94 37
-94 24z"/>
<path d="M6520 12324 c0 -8 5 -12 10 -9 6 4 8 11 5 16 -9 14 -15 11 -15 -7z"/>
<path d="M6050 12310 c0 -5 7 -10 15 -10 8 0 15 5 15 10 0 6 -7 10 -15 10 -8
0 -15 -4 -15 -10z"/>
<path d="M6255 12279 c11 -17 87 -69 102 -69 21 0 8 15 -44 49 -47 32 -69 39
-58 20z"/>
<path d="M6540 12284 c0 -14 71 -91 85 -91 8 0 15 2 15 4 0 7 -54 77 -65 85
-12 9 -35 10 -35 2z"/>
<path d="M6380 12180 c0 -12 28 -25 36 -17 3 3 -4 10 -15 17 -15 7 -21 7 -21
0z"/>
<path d="M6650 12172 c0 -12 62 -84 67 -78 6 6 -49 85 -59 86 -5 0 -8 -3 -8
-8z"/>
<path d="M5840 12150 c0 -6 7 -10 15 -10 8 0 15 2 15 4 0 2 -7 6 -15 10 -8 3
-15 1 -15 -4z"/>
<path d="M6760 12142 c0 -7 -7 -12 -15 -12 -19 0 -20 -16 -1 -23 21 -8 43 20
28 35 -9 9 -12 9 -12 0z"/>
<path d="M6026 12093 c3 -16 16 -35 27 -43 12 -8 51 -39 87 -67 57 -46 90 -64
90 -48 0 2 -18 22 -40 44 -28 28 -38 45 -33 57 5 14 2 16 -19 11 -38 -10 -88
18 -88 49 0 15 -6 24 -15 24 -12 0 -14 -7 -9 -27z"/>
<path d="M6790 12104 c0 -17 17 -36 24 -26 3 5 -1 15 -9 22 -8 7 -15 9 -15 4z"/>
<path d="M6500 12085 c7 -8 17 -15 22 -15 6 0 5 7 -2 15 -7 8 -17 15 -22 15
-6 0 -5 -7 2 -15z"/>
<path d="M6150 12070 c0 -5 7 -10 16 -10 8 0 12 5 9 10 -3 6 -10 10 -16 10 -5
0 -9 -4 -9 -10z"/>
<path d="M6830 12054 c0 -5 7 -19 15 -30 8 -10 15 -14 15 -8 0 5 -7 19 -15 30
-8 10 -15 14 -15 8z"/>
<path d="M6665 12009 c5 -8 22 -31 38 -52 31 -40 50 -45 23 -5 -9 12 -16 30
-16 40 0 10 -4 18 -9 18 -5 0 -17 3 -27 7 -13 5 -15 3 -9 -8z"/>
<path d="M2750 11917 c0 -50 4 -76 10 -72 14 8 13 -8 -1 -22 -6 -6 -10 -16 -8
-22 3 -7 21 5 41 26 l38 39 -40 64 -40 65 0 -78z"/>
<path d="M6309 11973 c12 -24 80 -83 95 -83 12 0 -20 35 -68 73 -31 25 -37 27
-27 10z"/>
<path d="M6880 11961 c0 -11 39 -59 40 -49 0 14 -23 58 -32 58 -4 0 -8 -4 -8
-9z"/>
<path d="M6830 11864 c0 -3 8 -18 19 -32 10 -15 45 -83 78 -152 33 -69 67
-131 76 -139 17 -14 24 -2 8 15 -5 5 -14 27 -21 49 -17 55 -121 241 -142 254
-10 6 -18 8 -18 5z"/>
<path d="M6320 11846 c0 -7 7 -19 15 -26 16 -13 20 -3 9 24 -8 20 -24 21 -24
2z"/>
<path d="M6810 11803 c0 -5 9 -18 20 -28 11 -10 20 -14 20 -8 0 5 -9 18 -20
28 -11 10 -20 14 -20 8z"/>
<path d="M6960 11791 c-8 -16 -8 -21 1 -19 7 2 21 -14 31 -34 26 -55 41 -47
17 10 -26 61 -35 69 -49 43z"/>
<path d="M6650 11703 c1 -9 50 -47 55 -41 1 1 -1 13 -6 26 -8 20 -49 33 -49
15z"/>
<path d="M6580 11642 c0 -5 11 -19 25 -32 28 -26 33 -16 9 18 -15 22 -34 30
-34 14z"/>
<path d="M6666 11615 c15 -20 29 -34 31 -31 6 6 -17 49 -31 58 -25 17 -25 6 0
-27z"/>
<path d="M6710 11542 c0 -5 7 -17 15 -28 15 -19 20 -8 9 20 -6 17 -24 22 -24
8z"/>
<path d="M6810 11505 c0 -8 5 -15 10 -15 6 0 10 7 10 15 0 8 -4 15 -10 15 -5
0 -10 -7 -10 -15z"/>
<path d="M6810 11409 c0 -26 42 -98 48 -81 2 6 -4 24 -12 41 -9 16 -16 37 -16
46 0 8 -4 15 -10 15 -5 0 -10 -10 -10 -21z"/>
<path d="M7010 11374 c0 -9 31 -37 36 -32 9 9 -8 38 -22 38 -8 0 -14 -3 -14
-6z"/>
<path d="M7120 11364 c0 -5 7 -19 15 -30 8 -10 15 -14 15 -8 0 5 -7 19 -15 30
-8 10 -15 14 -15 8z"/>
<path d="M7110 11322 c0 -5 7 -15 15 -22 8 -7 15 -8 15 -2 0 5 -7 15 -15 22
-8 7 -15 8 -15 2z"/>
<path d="M6860 11269 c0 -35 31 -91 44 -78 8 8 -11 72 -29 94 -14 19 -14 18
-15 -16z"/>
<path d="M7155 11270 c-4 -6 -3 -16 3 -22 13 -13 23 4 13 21 -7 10 -10 10 -16
1z"/>
<path d="M6820 11229 c0 -8 7 -24 16 -35 14 -18 15 -18 8 6 -8 31 -24 50 -24
29z"/>
<path d="M6900 11120 c0 -5 6 -10 14 -10 8 0 18 5 21 10 3 6 -3 10 -14 10 -12
0 -21 -4 -21 -10z"/>
<path d="M7281 11078 c9 -33 29 -61 29 -41 0 20 -22 73 -30 73 -5 0 -4 -14 1
-32z"/>
<path d="M6927 11073 c-22 -6 -17 -40 14 -88 l19 -30 0 63 c0 34 -3 61 -7 61
-5 -1 -16 -3 -26 -6z"/>
<path d="M1600 10861 c0 -11 5 -23 10 -26 6 -4 10 5 10 19 0 14 -4 26 -10 26
-5 0 -10 -9 -10 -19z"/>
<path d="M6953 10450 c0 -36 2 -50 4 -32 2 17 2 47 0 65 -2 17 -4 3 -4 -33z"/>
<path d="M6920 10305 c0 -14 5 -25 10 -25 6 0 10 11 10 25 0 14 -4 25 -10 25
-5 0 -10 -11 -10 -25z"/>
<path d="M4940 9750 l0 -440 75 0 75 0 -2 438 -3 437 -72 3 -73 3 0 -441z"/>
<path d="M5397 10180 c-55 -16 -57 -23 -57 -151 l0 -119 38 -27 c21 -16 129
-89 240 -163 l201 -135 1 -102 0 -103 -170 0 -170 0 0 105 0 105 -70 0 -70 0
0 -119 c0 -172 -19 -163 316 -159 328 4 304 -9 304 165 0 119 -1 125 -24 147
-14 12 -122 87 -240 166 l-216 143 0 89 0 88 170 0 170 0 0 -95 0 -95 70 0 70
0 0 108 c0 59 -4 112 -8 119 -4 7 -24 19 -45 28 -29 12 -80 15 -259 14 -123 0
-236 -5 -251 -9z"/>
<path d="M6207 10183 c-9 -8 -9 -806 -1 -828 14 -37 57 -45 229 -45 151 0 168
-2 187 -20 12 -10 26 -16 32 -12 7 4 4 8 -6 10 -10 2 -18 7 -18 12 0 4 39 8
88 9 67 1 93 5 112 20 l25 18 5 314 c3 173 8 319 13 326 4 6 3 14 -3 18 -5 3
-10 46 -10 96 l0 89 -70 0 -70 0 -1 -352 c-1 -194 -1 -377 -1 -405 l1 -53
-185 0 -184 0 0 405 0 405 -68 0 c-38 0 -72 -3 -75 -7z"/>
<path d="M7261 9973 c-80 -249 -195 -607 -205 -640 -7 -22 -5 -23 62 -23 l69
0 11 38 c6 20 18 63 27 95 l17 57 156 -2 156 -3 26 -90 26 -90 72 -3 c40 -2
72 -2 72 0 0 2 -63 199 -139 438 l-138 435 -71 3 -71 3 -70 -218z m208 -173
c33 -118 61 -218 61 -222 0 -5 -61 -8 -136 -8 -104 0 -135 3 -131 13 3 6 33
110 68 229 35 120 66 214 70 210 3 -4 34 -104 68 -222z"/>
<path d="M7940 9750 l0 -440 255 0 255 0 0 35 0 35 -185 0 -185 0 0 405 0 405
-70 0 -70 0 0 -440z"/>
<path d="M8687 10180 c-55 -17 -57 -23 -57 -151 l0 -119 60 -43 c33 -24 140
-97 239 -163 l181 -119 0 -102 0 -103 -170 0 -170 0 0 105 0 105 -70 0 -70 0
0 -125 0 -124 30 -16 c26 -14 70 -15 289 -13 324 4 301 -8 301 163 0 107 -2
124 -20 143 -11 11 -119 87 -240 168 l-220 148 0 88 0 88 170 0 170 0 0 -95 0
-95 70 0 71 0 -3 111 c-4 160 9 153 -296 156 -130 1 -250 -2 -265 -7z"/>
<path d="M1794 10129 c-10 -17 13 -36 27 -22 12 12 4 33 -11 33 -5 0 -12 -5
-16 -11z"/>
<path d="M1815 10020 c-3 -5 -1 -10 4 -10 6 0 11 5 11 10 0 6 -2 10 -4 10 -3
0 -8 -4 -11 -10z"/>
<path d="M1920 9959 c0 -5 5 -7 10 -4 6 3 10 8 10 11 0 2 -4 4 -10 4 -5 0 -10
-5 -10 -11z"/>
<path d="M6966 9945 c4 -8 10 -15 14 -15 4 0 10 7 14 15 4 10 -1 15 -14 15
-13 0 -18 -5 -14 -15z"/>
<path d="M1870 9930 c0 -5 5 -10 10 -10 6 0 10 5 10 10 0 6 -4 10 -10 10 -5 0
-10 -4 -10 -10z"/>
<path d="M2114 9836 c-3 -14 -12 -27 -20 -30 -8 -3 -14 -10 -14 -17 0 -6 7 -9
15 -5 8 3 15 1 15 -4 0 -6 4 -10 9 -10 5 0 7 10 3 22 -4 16 -2 19 8 13 10 -6
11 -4 4 6 -5 8 -7 22 -6 32 5 26 -7 20 -14 -7z"/>
<path d="M6956 9844 c-4 -9 -4 -19 -2 -21 8 -8 26 8 26 23 0 19 -16 18 -24 -2z"/>
<path d="M1930 9790 c0 -5 7 -10 16 -10 8 0 12 5 9 10 -3 6 -10 10 -16 10 -5
0 -9 -4 -9 -10z"/>
<path d="M2055 9750 c3 -5 14 -10 23 -10 15 0 15 2 2 10 -20 13 -33 13 -25 0z"/>
<path d="M6892 9715 c-14 -31 -15 -45 -4 -45 9 0 32 44 32 60 0 19 -17 10 -28
-15z"/>
<path d="M2116 9703 c-10 -10 -7 -33 5 -33 5 0 8 4 5 9 -4 5 -1 11 6 13 8 3 9
6 1 11 -5 4 -13 4 -17 0z"/>
<path d="M2137 9605 c-5 -10 0 -15 14 -15 12 0 19 5 17 12 -6 18 -25 20 -31 3z"/>
<path d="M6875 9580 c-3 -5 -1 -10 4 -10 6 0 11 5 11 10 0 6 -2 10 -4 10 -3 0
-8 -4 -11 -10z"/>
<path d="M2106 9571 c-4 -5 -2 -12 3 -15 5 -4 12 -2 15 3 4 5 2 12 -3 15 -5 4
-12 2 -15 -3z"/>
<path d="M2170 9573 c1 -18 18 -35 24 -24 4 6 2 11 -4 11 -6 0 -8 5 -5 10 3 6
1 10 -4 10 -6 0 -11 -3 -11 -7z"/>
<path d="M2210 9551 c0 -6 9 -9 20 -8 11 1 20 5 20 9 0 4 -9 8 -20 8 -11 0
-20 -4 -20 -9z"/>
<path d="M2210 9510 c0 -5 5 -10 10 -10 6 0 10 5 10 10 0 6 -4 10 -10 10 -5 0
-10 -4 -10 -10z"/>
<path d="M2250 9450 c0 -5 5 -10 10 -10 6 0 10 5 10 10 0 6 -4 10 -10 10 -5 0
-10 -4 -10 -10z"/>
<path d="M2200 9421 c0 -5 5 -13 10 -16 6 -3 10 -2 10 4 0 5 -4 13 -10 16 -5
3 -10 2 -10 -4z"/>
<path d="M6680 9420 c0 -5 5 -10 10 -10 6 0 10 5 10 10 0 6 -4 10 -10 10 -5 0
-10 -4 -10 -10z"/>
<path d="M2382 9391 c1 -17 5 -31 10 -31 5 0 7 -4 4 -9 -3 -4 4 -17 15 -27
l21 -19 -7 35 c-4 19 -13 38 -19 42 -7 5 -4 8 7 8 25 0 16 24 -11 28 -17 3
-21 -2 -20 -27z"/>
<path d="M2315 9380 c3 -5 8 -10 11 -10 2 0 4 5 4 10 0 6 -5 10 -11 10 -5 0
-7 -4 -4 -10z"/>
<path d="M2447 9343 c-4 -3 -7 -15 -7 -25 0 -10 -6 -18 -13 -18 -8 0 -14 -6
-14 -14 0 -11 6 -11 35 1 31 13 34 13 29 -1 -4 -9 -2 -16 3 -16 10 0 13 12 8
28 -2 4 -10 7 -18 7 -10 0 -14 8 -12 23 3 23 0 27 -11 15z"/>
<path d="M2310 9294 c0 -8 5 -12 10 -9 6 3 10 10 10 16 0 5 -4 9 -10 9 -5 0
-10 -7 -10 -16z"/>
<path d="M2353 9295 c-17 -19 -16 -25 2 -25 8 0 15 9 15 20 0 23 -1 24 -17 5z"/>
<path d="M2440 9264 c0 -8 5 -12 10 -9 6 4 8 11 5 16 -9 14 -15 11 -15 -7z"/>
<path d="M2385 9240 c3 -5 11 -10 16 -10 6 0 7 5 4 10 -3 6 -11 10 -16 10 -6
0 -7 -4 -4 -10z"/>
<path d="M6735 9210 c-3 -5 -1 -10 4 -10 6 0 11 5 11 10 0 6 -2 10 -4 10 -3 0
-8 -4 -11 -10z"/>
<path d="M6575 9199 c-11 -17 1 -21 15 -4 8 9 8 15 2 15 -6 0 -14 -5 -17 -11z"/>
<path d="M6507 9149 c-10 -21 -25 -39 -33 -39 -8 0 -14 -5 -14 -11 0 -6 7 -9
15 -5 8 3 15 1 15 -4 0 -6 5 -10 11 -10 6 0 8 7 5 16 -4 9 1 28 9 41 9 13 15
30 13 38 -2 7 -11 -5 -21 -26z"/>
<path d="M6540 9154 c0 -8 5 -12 10 -9 6 3 10 10 10 16 0 5 -4 9 -10 9 -5 0
-10 -7 -10 -16z"/>
<path d="M2503 9127 c5 -15 37 -22 37 -9 0 5 -9 12 -21 15 -13 3 -19 1 -16 -6z"/>
<path d="M6541 9116 c-8 -9 -11 -19 -7 -23 9 -9 29 13 24 27 -2 8 -8 7 -17 -4z"/>
<path d="M6580 9116 c0 -9 5 -16 10 -16 6 0 10 4 10 9 0 6 -4 13 -10 16 -5 3
-10 -1 -10 -9z"/>
<path d="M2467 9096 c-3 -8 1 -17 8 -20 20 -7 28 9 11 23 -10 9 -15 8 -19 -3z"/>
<path d="M2560 9100 c0 -5 5 -10 11 -10 8 0 8 -5 -1 -15 -8 -9 -9 -15 -2 -15
16 0 23 16 16 34 -7 18 -24 22 -24 6z"/>
<path d="M6424 9069 c-3 -6 -1 -16 5 -22 8 -8 11 -8 11 1 0 7 7 9 18 5 15 -6
15 -5 3 10 -16 20 -27 22 -37 6z"/>
<path d="M2600 9060 c0 -5 5 -10 10 -10 6 0 10 5 10 10 0 6 -4 10 -10 10 -5 0
-10 -4 -10 -10z"/>
<path d="M2430 9050 c0 -5 5 -10 10 -10 6 0 10 5 10 10 0 6 -4 10 -10 10 -5 0
-10 -4 -10 -10z"/>
<path d="M6445 9030 c-3 -5 -1 -10 4 -10 6 0 11 5 11 10 0 6 -2 10 -4 10 -3 0
-8 -4 -11 -10z"/>
<path d="M2683 9023 c-15 -5 -17 -23 -4 -23 5 0 11 7 15 15 3 8 4 15 3 14 -1
0 -8 -3 -14 -6z"/>
<path d="M6364 8999 c-4 -7 0 -9 13 -5 17 5 19 2 15 -24 -3 -18 0 -30 7 -30 6
0 11 11 11 25 0 14 5 25 10 25 6 0 10 4 10 8 0 12 -58 13 -66 1z"/>
<path d="M2540 8990 c0 -5 5 -10 10 -10 6 0 10 5 10 10 0 6 -4 10 -10 10 -5 0
-10 -4 -10 -10z"/>
<path d="M6440 8985 c-8 -9 -8 -15 -2 -15 12 0 26 19 19 26 -2 2 -10 -2 -17
-11z"/>
<path d="M2586 8981 c-6 -10 24 -25 32 -16 3 3 0 5 -7 5 -7 0 -9 5 -6 10 3 6
2 10 -4 10 -5 0 -12 -4 -15 -9z"/>
<path d="M6328 8956 c-15 -21 -15 -25 -3 -30 8 -3 15 0 15 7 1 7 6 5 14 -5 7
-10 19 -18 26 -18 10 0 10 3 0 15 -6 8 -9 19 -5 25 8 13 -1 13 -28 -1 -20 -9
-20 -9 -4 4 18 15 22 27 10 27 -5 0 -16 -11 -25 -24z"/>
<path d="M2505 8960 c3 -5 8 -10 11 -10 2 0 4 5 4 10 0 6 -5 10 -11 10 -5 0
-7 -4 -4 -10z"/>
<path d="M2747 8944 c6 -15 23 -19 23 -5 0 5 -7 11 -14 14 -10 4 -13 1 -9 -9z"/>
<path d="M6490 8930 c0 -5 5 -10 10 -10 6 0 10 5 10 10 0 6 -4 10 -10 10 -5 0
-10 -4 -10 -10z"/>
<path d="M6267 8892 c-15 -15 -27 -35 -27 -43 0 -11 -2 -12 -9 0 -6 9 -10 10
-16 2 -4 -7 -2 -18 5 -26 14 -17 -5 -31 -23 -17 -16 14 -113 -71 -109 -94 3
-12 -1 -15 -12 -11 -9 4 -16 2 -16 -4 0 -5 7 -12 15 -15 8 -4 15 -12 15 -19 0
-16 62 -5 67 12 6 16 -29 26 -38 11 -4 -7 -11 -9 -15 -5 -4 3 -1 14 7 23 8 10
13 20 13 23 -3 12 8 31 18 31 6 0 8 -9 5 -19 -5 -19 37 -70 48 -59 8 7 -5 38
-16 38 -5 0 -4 12 2 27 7 19 6 28 -2 34 -6 4 -8 12 -5 18 11 17 37 -14 30 -33
-4 -12 0 -16 15 -16 12 0 21 -6 21 -15 0 -8 5 -15 11 -15 7 0 9 10 7 25 -3 14
0 29 7 35 9 8 12 4 10 -15 -2 -14 1 -25 5 -25 16 0 60 23 60 32 0 11 -17 10
-25 -2 -3 -5 -13 -10 -21 -10 -12 0 -11 6 7 31 19 27 19 30 4 27 -10 -2 -20 3
-23 11 -4 11 3 12 32 7 l36 -7 -2 43 c-2 34 -6 44 -20 44 -22 0 -32 -22 -12
-30 8 -3 14 -13 13 -23 0 -16 -1 -16 -9 2 -5 11 -9 15 -9 10 -1 -6 -11 -12
-23 -12 -13 -1 -18 1 -12 5 11 7 29 52 22 52 -3 0 -16 -13 -31 -28z"/>
<path d="M2735 8900 c-3 -5 -1 -10 4 -10 6 0 11 5 11 10 0 6 -2 10 -4 10 -3 0
-8 -4 -11 -10z"/>
<path d="M6377 8894 c-13 -13 -7 -23 13 -21 11 1 19 6 17 11 -4 13 -21 18 -30
10z"/>
<path d="M6490 8890 c0 -5 5 -10 10 -10 6 0 10 5 10 10 0 6 -4 10 -10 10 -5 0
-10 -4 -10 -10z"/>
<path d="M6340 8800 c0 -5 5 -10 10 -10 6 0 10 5 10 10 0 6 -4 10 -10 10 -5 0
-10 -4 -10 -10z"/>
<path d="M2905 8790 c-3 -5 -1 -10 4 -10 6 0 11 5 11 10 0 6 -2 10 -4 10 -3 0
-8 -4 -11 -10z"/>
<path d="M2880 8754 c0 -8 5 -12 10 -9 6 3 10 10 10 16 0 5 -4 9 -10 9 -5 0
-10 -7 -10 -16z"/>
<path d="M6200 8730 c0 -5 4 -10 9 -10 6 0 13 5 16 10 3 6 -1 10 -9 10 -9 0
-16 -4 -16 -10z"/>
<path d="M6305 8731 c-3 -5 -1 -12 5 -16 12 -7 30 2 30 16 0 12 -27 12 -35 0z"/>
<path d="M6276 8704 c-4 -9 -4 -19 -1 -22 2 -3 7 3 11 12 4 9 4 19 1 22 -2 3
-7 -3 -11 -12z"/>
<path d="M6003 8672 c-16 -15 -46 -36 -66 -46 -20 -10 -35 -22 -32 -26 2 -4
-1 -7 -8 -7 -7 0 -55 -25 -107 -55 -52 -29 -110 -60 -127 -67 -37 -15 -43 -31
-12 -31 28 0 61 19 54 31 -11 16 7 10 21 -8 13 -17 15 -17 28 -1 12 17 14 17
31 -2 23 -26 41 -25 48 1 4 15 11 20 23 15 11 -4 26 1 40 15 12 11 28 18 34
14 8 -5 4 -11 -11 -19 -26 -13 -48 -59 -23 -49 14 5 20 -8 8 -20 -11 -11 -34
5 -34 24 0 10 -7 19 -15 19 -11 0 -13 -8 -8 -32 6 -29 4 -31 -9 -21 -12 10
-20 10 -41 0 -34 -15 -36 -30 -2 -17 16 6 26 6 31 -1 4 -6 11 -6 20 2 8 6 23
9 33 6 26 -6 53 23 41 43 -17 26 -11 31 31 26 37 -5 40 -4 34 17 -10 37 -28
67 -36 61 -4 -2 -10 0 -13 5 -10 15 13 24 29 11 11 -9 16 -7 25 9 9 17 14 19
31 11 22 -13 39 -6 39 16 0 10 -8 14 -22 12 -13 -1 -25 2 -28 7 -3 6 10 11 28
13 31 3 47 22 18 22 -21 0 -40 27 -24 33 7 2 10 7 7 10 -3 4 -19 -6 -36 -21z
m-27 -80 c-4 -3 -11 0 -16 8 -7 10 -10 11 -10 3 0 -7 -5 -13 -10 -13 -6 0 -6
7 2 19 10 16 13 17 26 4 8 -7 11 -17 8 -21z m-83 -29 c8 -8 -11 -33 -25 -33
-7 0 -6 5 1 13 6 8 8 17 4 20 -3 4 -2 7 4 7 5 0 13 -3 16 -7z m-93 -64 c0 -6
-4 -7 -10 -4 -5 3 -10 11 -10 16 0 6 5 7 10 4 6 -3 10 -11 10 -16z m60 13 c0
-4 -9 -8 -19 -8 -11 0 -17 4 -15 8 3 4 12 8 20 8 8 0 14 -4 14 -8z"/>
<path d="M6235 8680 c-3 -5 -1 -10 4 -10 6 0 11 5 11 10 0 6 -2 10 -4 10 -3 0
-8 -4 -11 -10z"/>
<path d="M6105 8630 c-3 -5 3 -10 14 -10 12 0 21 5 21 10 0 6 -6 10 -14 10 -8
0 -18 -4 -21 -10z"/>
<path d="M6010 8549 c0 -5 5 -7 10 -4 6 3 10 8 10 11 0 2 -4 4 -10 4 -5 0 -10
-5 -10 -11z"/>
<path d="M5990 8496 c0 -9 5 -16 10 -16 6 0 10 4 10 9 0 6 -4 13 -10 16 -5 3
-10 -1 -10 -9z"/>
<path d="M5711 8370 c-12 -7 -12 -11 -2 -24 15 -18 41 -21 41 -6 0 6 -4 10 -9
10 -5 0 -11 7 -13 15 -2 10 -8 12 -17 5z"/>
<path d="M5835 8371 c-3 -6 -14 -8 -25 -6 -20 4 -27 -9 -11 -20 11 -6 61 15
61 27 0 11 -17 10 -25 -1z"/>
<path d="M5582 8340 c-39 -9 -46 -15 -37 -29 8 -14 35 -14 35 0 0 6 8 8 19 4
21 -6 39 12 25 24 -5 4 -24 5 -42 1z"/>
<path d="M5308 8323 c7 -3 16 -2 19 1 4 3 -2 6 -13 5 -11 0 -14 -3 -6 -6z"/>
<path d="M5463 8323 c-15 -6 -17 -33 -3 -33 5 0 14 9 20 20 11 20 6 23 -17 13z"/>
<path d="M5686 8321 c-3 -5 4 -11 16 -14 29 -8 32 -4 8 11 -10 6 -21 8 -24 3z"/>
<path d="M5375 8309 c-12 -19 5 -23 22 -6 16 16 16 17 1 17 -9 0 -20 -5 -23
-11z"/>
<path d="M5245 8301 c-3 -5 -1 -12 5 -16 5 -3 10 1 10 9 0 18 -6 21 -15 7z"/>
<path d="M5486 8294 c-9 -24 -2 -26 12 -4 7 11 8 20 3 20 -5 0 -12 -7 -15 -16z"/>
<path d="M5290 8289 c0 -5 5 -7 10 -4 6 3 10 8 10 11 0 2 -4 4 -10 4 -5 0 -10
-5 -10 -11z"/>
<path d="M5345 8290 c-3 -5 -1 -10 4 -10 6 0 11 5 11 10 0 6 -2 10 -4 10 -3 0
-8 -4 -11 -10z"/>
<path d="M5610 8285 c-7 -9 -10 -18 -6 -22 3 -3 6 -1 6 5 0 6 8 12 18 14 11 2
13 6 6 11 -7 4 -17 0 -24 -8z"/>
<path d="M5225 8270 c3 -5 8 -10 11 -10 2 0 4 5 4 10 0 6 -5 10 -11 10 -5 0
-7 -4 -4 -10z"/>
<path d="M5515 8270 c3 -5 10 -10 16 -10 5 0 9 5 9 10 0 6 -7 10 -16 10 -8 0
-12 -4 -9 -10z"/>
<path d="M5105 8240 c-3 -5 -2 -10 4 -10 5 0 13 5 16 10 3 6 2 10 -4 10 -5 0
-13 -4 -16 -10z"/>
<path d="M5225 8230 c-3 -5 -1 -10 4 -10 6 0 11 5 11 10 0 6 -2 10 -4 10 -3 0
-8 -4 -11 -10z"/>
<path d="M5349 8223 c-12 -15 -12 -16 4 -10 10 4 23 7 28 7 5 0 9 5 9 10 0 16
-26 12 -41 -7z"/>
<path d="M5525 8190 c3 -5 8 -10 11 -10 2 0 4 5 4 10 0 6 -5 10 -11 10 -5 0
-7 -4 -4 -10z"/>
<path d="M5530 8160 c0 -5 5 -10 10 -10 6 0 10 5 10 10 0 6 -4 10 -10 10 -5 0
-10 -4 -10 -10z"/>
</g>
</svg>
